<svg width="200" height="72">
    <defs id="SvgjsDefs4149">
        <linearGradient id="SvgjsLinearGradient4152">
            <stop id="SvgjsStop4153" stop-color="#ef4136" offset="0"></stop>
            <stop id="SvgjsStop4154" stop-color="#fbb040" offset="1"></stop>
        </linearGradient>
    </defs>
    <g id="SvgjsG4150" featurekey="root" fill="#0c0c0c"></g>
    <g id="SvgjsG4151" featurekey="text1" fill="url(#SvgjsLinearGradient4152)"
       transform="matrix(1.9104991059645406,0,0,1.9104991059645406,3.782785533258776,0.15983167074107563)">
        <path
                d="M13.34 10.84 q0.2 -0.62 0.14 -1.14 q-0.04 -0.3 -0.28 -0.88 l-0.16 -0.44 q-0.34 -1.14 -1.12 -1.84 q-1.2 -1.18 -3.24 -1.36 q-1.88 -0.16 -4.02 0.55 t-3.82 2.05 q-1.78 1.42 -2.52 3.12 q-0.3 0.7 -0.3 1.36 q0 0.54 0.2 0.96 q0.16 0.38 0.4 0.54 t0.34 0.04 q0.02 -0.02 -0.06 -0.1 q-0.34 -0.36 -0.4 -0.76 q-0.1 -0.74 0.64 -1.7 q1 -1.28 2.86 -2.34 q1.76 -0.96 3.8 -1.47 t3.68 -0.37 q1.74 0.16 2.48 1.02 q0.58 0.66 -0.14 2.2 q-0.68 1.5 -2.32 3.28 q-0.8 0.88 -1.8 1.62 q-0.82 0.6 -1.72 1.1 q-0.66 0.34 -1.3 0.6 l-0.5 0.2 l0.6 -1.1 q0.62 -1.2 0.67 -1.6 t-0.21 -1.04 t-0.5 -0.86 q-0.18 -0.18 -0.86 -0.08 q-0.74 0.1 -1.54 0.48 q-0.94 0.48 -1.6 1.2 q-0.8 0.88 -1.1 2.04 q-0.18 0.72 0.08 1.28 q0.2 0.46 0.66 0.82 q0.34 0.24 0.78 0.42 l0.36 0.12 l-0.38 1.02 q-0.44 1.24 -0.7 2.22 q-0.36 1.38 -0.3 2.08 q0.04 0.48 0.36 0.92 q0.26 0.36 0.6 0.59 t0.4 0.16 t-0.03 -0.32 t-0.13 -0.43 q-0.06 -0.3 0 -0.58 q0.22 -1.08 0.72 -2.5 q0.38 -1.02 0.86 -2.12 l0.4 -0.88 l0.32 -0.06 q0.42 -0.08 0.88 -0.2 q0.66 -0.18 1.3 -0.42 q0.8 -0.3 1.56 -0.7 q0.88 -0.46 1.68 -1.02 q0.9 -0.64 1.64 -1.42 q0.84 -0.86 1.48 -1.88 q0.7 -1.1 1.16 -2.38 z M4.28 13.42 q0.04 0.04 -0.06 0.2 l-0.24 0.4 q-0.62 0.92 -0.92 1.58 q-0.3 0.56 -0.62 1.24 l-0.28 0.58 l-0.52 -0.04 q-0.6 -0.08 -0.96 -0.22 q-0.5 -0.18 -0.46 -0.44 q0.12 -0.88 0.56 -1.58 q0.38 -0.6 1 -1.02 q0.5 -0.36 1.1 -0.56 q0.5 -0.16 0.94 -0.2 q0.4 -0.02 0.46 0.06 z M14.66 22.7 q-0.06 -0.08 0.14 -0.94 q0.22 -1.02 0.56 -2.02 q0.44 -1.3 1 -2.22 q0.28 -0.5 0.58 -0.98 l0.26 -0.36 l-0.22 -0.14 q-0.26 -0.16 -0.52 -0.24 q-0.36 -0.1 -0.61 -0.03 t-0.49 0.33 q-0.16 0.2 -0.32 0.48 l-0.1 0.24 l-0.28 -0.2 q-0.36 -0.24 -0.7 -0.38 q-0.48 -0.22 -0.86 -0.22 q-0.5 -0.02 -0.84 0.28 q-1.14 0.98 -1.9 2.22 q-0.64 1.02 -0.96 2.16 q-0.26 0.9 -0.3 1.72 q-0.04 0.68 0.08 0.9 q0.12 0.34 0.76 0.58 q0.56 0.22 0.96 0.16 q0.2 -0.04 0.78 -0.7 q0.4 -0.48 0.96 -1.22 l0.46 -0.66 l-0.06 0.42 q-0.04 0.52 0 0.92 q0.04 0.56 0.22 0.82 q0.16 0.18 0.68 0.32 q0.56 0.18 0.86 0.06 q0.66 -0.22 1.26 -1.14 q0.48 -0.74 0.92 -1.9 q0.3 -0.82 0.54 -1.76 l0.18 -0.78 l-0.58 1.06 q-0.68 1.2 -1.24 1.98 q-0.36 0.5 -0.77 0.91 t-0.45 0.33 z M13.02 17.38 q0.28 -0.3 0.56 -0.38 q0.24 -0.06 0.48 0.02 q0.16 0.06 0.32 0.18 l0.12 0.1 l-0.42 0.74 q-0.5 0.92 -1 1.72 q-0.7 1.14 -1.26 1.92 q-0.32 0.46 -0.72 0.88 l-0.32 0.34 l0 -0.3 q0 -0.4 0.06 -0.84 q0.1 -0.62 0.3 -1.24 q0.26 -0.78 0.68 -1.5 q0.5 -0.86 1.2 -1.64 z M23.860000000000003 14.12 q0.04 -0.84 -0.18 -1.46 q-0.2 -0.54 -0.58 -0.9 q-0.3 -0.28 -0.72 -0.44 q-0.28 -0.12 -0.6 -0.18 l-0.26 -0.02 l0.14 0.38 q0.16 0.52 0.26 1.12 q0.14 0.86 0.14 1.78 q0 1.16 -0.22 2.36 q-0.26 1.42 -0.82 2.86 q-0.54 1.24 -1.2 2.08 q-0.52 0.66 -1.08 1 q-0.44 0.28 -0.74 0.28 q-0.06 0.06 -0.06 -0.19 t0.08 -0.67 q0.1 -0.48 0.24 -0.94 q0.18 -0.58 0.42 -1.04 q0.42 -1.06 1 -2.32 l0.5 -1.04 l-0.14 -0.18 q-0.18 -0.18 -0.38 -0.32 q-0.28 -0.18 -0.54 -0.2 q-0.34 -0.02 -0.62 0.2 q-0.66 0.84 -1.18 2.06 q-0.7 1.62 -0.82 3.28 l0.02 0.32 q0.04 0.4 0.14 0.72 q0.12 0.42 0.36 0.64 q0.84 0.88 1.48 0.68 q0.4 -0.2 1 -0.72 q0.86 -0.74 1.62 -1.76 q0.98 -1.34 1.64 -3 q0.8 -2 1.1 -4.38 z M24.98 21.259999999999998 q0.26 0 0.96 -0.52 q0.74 -0.56 1.4 -1.28 q0.78 -0.86 1.12 -1.62 q0.38 -0.9 0.04 -1.54 q-0.12 -0.24 -0.56 -0.54 q-0.54 -0.36 -1.04 -0.42 q-0.58 -0.08 -1.34 0.42 q-0.54 0.34 -1.06 0.88 q-1.12 1.52 -1.64 3.12 q-0.44 1.36 -0.3 2.3 q0.08 0.74 0.42 1.22 q0.28 0.38 0.7 0.58 q0.34 0.14 0.64 0.14 q0.9 0 1.94 -0.86 q0.9 -0.74 1.42 -1.7 q0.16 -0.3 0.26 -0.6 q0.06 -0.22 0.08 -0.42 l0.02 -0.14 l-0.2 0.26 q-0.26 0.32 -0.6 0.66 q-0.44 0.46 -0.95 0.87 t-0.79 0.59 q-0.46 0.3 -0.84 0.37 t-0.5 -0.21 t-0.08 -0.9 q0.04 -0.42 0.14 -0.74 l0.1 -0.22 l0.02 0.08 q0.06 0.08 0.18 0.14 q0.16 0.08 0.46 0.08 z M27.68 16.12 q0 0.1 -0.02 0.2 q-0.04 0.24 -0.12 0.5 q-0.12 0.38 -0.32 0.74 q-0.54 0.76 -1.02 1.3 q-0.4 0.46 -0.76 0.76 q-0.3 0.24 -0.54 0.38 q-0.16 0.08 -0.3 0.12 l-0.1 0 l0.16 -0.46 q0.22 -0.54 0.48 -1.06 q0.38 -0.7 0.81 -1.2 t0.87 -0.84 q0.32 -0.22 0.62 -0.36 z M33.76 14.16 q1.3 -1.7 2 -3.16 q0.8 -1.62 0.38 -2.06 q-1.34 -1.62 -2.98 0.16 q-1.32 1.42 -3.06 5.4 q-1.1 2.44 -1.76 4.94 q-0.58 2.28 -0.52 3.44 q0.02 0.46 0.3 0.75 t0.66 0.36 t0.7 -0.09 q0.72 -0.32 1.36 -1.18 t1.26 -2.3 q0.18 -0.42 0.24 -0.94 q0.04 -0.38 0 -0.78 l-0.04 -0.32 l0 0.2 q0 0.28 -0.1 0.58 q-0.12 0.4 -0.38 0.8 q-0.44 0.76 -1 1.49 t-1 1.13 q-0.48 0.44 -0.66 0.33 t0.16 -1.45 q0.24 -0.98 0.7 -2.46 l0.42 -1.3 l0.36 -0.32 q0.8 -0.72 1.3 -1.24 q0.86 -0.88 1.66 -1.98 z M35.379999999999995 9.06 q0.08 0.08 -0.06 0.54 t-0.48 1.1 q-0.4 0.72 -0.92 1.48 q-0.4 0.74 -1.06 1.56 q-0.48 0.58 -1.02 1.14 l-0.46 0.44 l0.56 -1.18 q0.66 -1.4 1.28 -2.42 q0.68 -1.12 1.35 -1.95 t0.81 -0.71 z  M37.14 18.32 l0.04 -0.28 q0.06 -0.34 0.16 -0.7 q0.16 -0.5 0.4 -0.94 q0.32 -0.56 0.74 -1 q1.14 -1.12 3.88 -2.14 q2.46 -0.9 5.62 -1.52 q3.02 -0.58 5.52 -0.68 q2.62 -0.12 3.6 0.34 q0.32 0.14 0.46 0.42 q0.12 0.22 0.12 0.5 q-0.02 0.22 -0.08 0.46 l-0.06 0.18 l-1.62 0.84 q-2.02 1.1 -4.02 2.26 q-2.8 1.62 -5.12 3.16 q-1.66 1.1 -3.44 2.38 q-1.56 1.12 -3.12 2.32 q-1.32 1.02 -2.46 1.94 q-1 0.82 -1.53 1.29 t-0.33 0.37 q0.44 -0.2 1.78 -0.7 q1.96 -0.72 3.9 -1.28 q2.66 -0.76 4.92 -1.12 q5.64 -0.82 8.56 1.22 q0.68 0.48 1.12 1.08 q0.36 0.5 0.52 1.08 q0.14 0.48 0.1 0.94 q-0.02 0.4 -0.16 0.62 t-0.26 0.12 l-0.1 -0.1 q-1.22 -1.26 -3.12 -1.9 q-3.62 -1.26 -9.1 -0.26 q-2.42 0.44 -5.34 1.46 q-1.6 0.56 -3.7 1.42 q-0.68 0.28 -0.72 0.28 q-0.28 0 -0.47 -0.25 t-0.25 -0.64 t0.04 -0.81 q0.24 -0.72 2.02 -2.38 q1.68 -1.58 4.36 -3.64 t5.64 -4.06 q2.58 -1.74 5.58 -3.48 q2.62 -1.52 4.5 -2.44 q0.06 -0.04 -0.35 -0.03 t-1.09 0.05 q-0.82 0.06 -1.74 0.16 q-1.12 0.14 -2.26 0.32 q-1.32 0.2 -2.6 0.48 q-1.46 0.3 -2.82 0.7 q-1.52 0.42 -2.9 0.92 q-1.52 0.56 -2.84 1.22 q-0.54 0.28 -0.98 0.62 q-0.36 0.28 -0.6 0.58 q-0.2 0.24 -0.32 0.44 z  M58.48 21.740000000000002 q-0.72 0.72 -1.16 0.9 q0.28 -0.92 0.82 -2.18 q0.32 -0.7 0.9 -1.88 q0.46 -0.96 0.46 -1.06 q0.02 -0.18 -0.16 -0.46 q-0.18 -0.34 -0.48 -0.58 q-0.38 -0.3 -0.82 -0.4 q-0.34 -0.06 -0.98 0.46 q-0.5 0.4 -1.18 1.16 q-0.48 0.54 -1 1.2 l-0.42 0.56 l0.56 -1.8 q0.66 -2.14 1.26 -3.8 q0.84 -2.34 1.4 -3.4 q0.16 -0.3 0.36 -0.66 l0.16 -0.3 l-0.26 -0.06 q-0.32 -0.06 -0.62 -0.02 q-0.42 0.02 -0.74 0.2 q-0.4 0.24 -0.62 0.68 q-0.5 0.96 -1.41 3.58 t-1.65 5.2 q-0.82 2.86 -1 4.18 q-0.02 0.3 0.38 0.52 q0.28 0.16 0.76 0.26 l0.42 0.08 l0.3 -0.84 q0.4 -1 0.82 -1.9 q0.6 -1.26 1.19 -2.1 t1.15 -1.42 q0.46 -0.48 0.8 -0.68 q0.3 -0.2 0.34 -0.08 q0.02 0.06 -0.34 0.72 q-0.66 1.22 -1 2.04 q-0.62 1.46 -0.76 2.64 q-0.08 0.62 0.2 1.04 q0.24 0.32 0.64 0.48 q0.32 0.12 0.47 0.09 t0.71 -0.59 q0.6 -0.58 1 -1.16 q0.52 -0.78 0.88 -1.52 q0.24 -0.54 0.4 -1 l0.1 -0.36 l-0.52 0.66 q-0.66 0.82 -1.36 1.6 z M61.64 21.259999999999998 q0.26 0 0.96 -0.52 q0.74 -0.56 1.4 -1.28 q0.78 -0.86 1.12 -1.62 q0.38 -0.9 0.04 -1.54 q-0.12 -0.24 -0.56 -0.54 q-0.54 -0.36 -1.04 -0.42 q-0.58 -0.08 -1.34 0.42 q-0.54 0.34 -1.06 0.88 q-1.12 1.52 -1.64 3.12 q-0.44 1.36 -0.3 2.3 q0.08 0.74 0.42 1.22 q0.28 0.38 0.7 0.58 q0.34 0.14 0.64 0.14 q0.9 0 1.94 -0.86 q0.9 -0.74 1.42 -1.7 q0.16 -0.3 0.26 -0.6 q0.06 -0.22 0.08 -0.42 l0.02 -0.14 l-0.2 0.26 q-0.26 0.32 -0.6 0.66 q-0.44 0.46 -0.95 0.87 t-0.79 0.59 q-0.46 0.3 -0.84 0.37 t-0.5 -0.21 t-0.08 -0.9 q0.04 -0.42 0.14 -0.74 l0.1 -0.22 l0.02 0.08 q0.06 0.08 0.18 0.14 q0.16 0.08 0.46 0.08 z M64.34 16.12 q0 0.1 -0.02 0.2 q-0.04 0.24 -0.12 0.5 q-0.12 0.38 -0.32 0.74 q-0.54 0.76 -1.02 1.3 q-0.4 0.46 -0.76 0.76 q-0.3 0.24 -0.54 0.38 q-0.16 0.08 -0.3 0.12 l-0.1 0 l0.16 -0.46 q0.22 -0.54 0.48 -1.06 q0.38 -0.7 0.81 -1.2 t0.87 -0.84 q0.32 -0.22 0.62 -0.36 z M67 24.04 q0.24 -0.94 1.52 -4.46 q0.78 -2.16 0.78 -2.28 q0 -0.22 -0.05 -0.31 t-0.19 -0.21 l-0.18 -0.16 l-0.14 -0.18 q-0.36 -0.42 -0.56 -0.52 q-0.16 -0.18 -0.5 -0.3 l-0.32 -0.1 l0.12 -0.46 q0.12 -0.56 0.18 -1.02 q0.06 -0.68 -0.02 -1.08 q-0.08 -0.52 -0.43 -0.61 t-0.91 0.12 t-1.04 0.61 q-0.54 0.46 -0.8 1.06 q-0.06 0.12 -0.02 0.38 q0.02 0.18 0.1 0.4 l0.06 0.18 q0.26 0.36 0.72 0.56 q0.4 0.16 1.06 0.26 l-0.12 0.42 q-0.2 0.66 -0.4 1.16 q-0.34 0.82 -1 2.04 q-0.28 0.52 -0.7 1.12 q-0.3 0.42 -0.64 0.84 l-0.28 0.34 q-0.06 0 -0.03 0.08 t0.13 0.16 t0.24 0.09 t0.28 -0.07 q0.32 -0.32 0.84 -1.05 t0.82 -1.27 q1.28 -2.32 1.56 -3.56 q0.4 0 0.55 0.05 t0.15 0.17 q0.04 0.08 -0.24 0.84 q-0.18 0.48 -0.68 1.8 q-0.84 2.2 -1.18 3.14 q-0.56 1.64 -0.44 1.92 q0.14 0.34 0.48 0.58 q0.28 0.22 0.62 0.32 q0.32 0.1 0.56 0.09 t0.24 -0.11 q0.04 -0.04 0.02 -0.08 t-0.06 -0.1 q-0.12 -0.16 -0.16 -0.28 q-0.06 -0.22 0.06 -0.52 z M66.96 13.16 q0.08 0.18 -0.16 1.22 l-0.26 1 l-0.48 -0.1 q-0.48 -0.1 -0.48 -0.18 q-0.14 -0.12 0.18 -0.66 q0.28 -0.46 0.7 -0.9 t0.5 -0.38 z M74.67999999999999 22.58 q0.2 -0.82 0.78 -2.28 q0.32 -0.82 0.94 -2.26 q0.42 -0.98 0.42 -1.04 q0.02 -0.12 -0.25 -0.32 t-0.59 -0.34 q-0.36 -0.14 -0.58 -0.1 q-0.6 0.14 -2.58 2.3 q-0.48 0.52 -0.96 1.16 q-0.36 0.46 -0.68 0.92 l-0.24 0.38 l0.26 -0.76 q0.34 -0.9 0.7 -1.7 q0.4 -0.94 0.88 -1.92 l0.4 -0.78 l-0.08 -0.08 q-0.1 -0.1 -0.24 -0.14 q-0.2 -0.08 -0.44 -0.06 q-0.32 0.02 -0.7 0.17 t-1 1.29 q-0.54 1 -1.1 2.44 q-0.54 1.4 -0.84 2.52 q-0.3 1.2 -0.16 1.46 q0.16 0.32 0.56 0.46 q0.28 0.1 0.66 0.12 l0.3 -0.02 l0.28 -0.54 q0.36 -0.68 0.76 -1.34 q0.54 -0.92 1.08 -1.68 q0.58 -0.8 1.32 -1.68 q0.52 -0.62 1.08 -1.2 l0.46 -0.46 l-0.42 0.86 q-0.5 1.02 -0.86 1.94 q-0.54 1.3 -0.74 2.16 q-0.26 1.1 0 1.48 q0.16 0.2 0.77 0.36 t0.83 0.1 q0.3 -0.08 1.12 -1 q0.76 -0.86 1.06 -1.38 t0.42 -1.12 q0.08 -0.42 0.06 -0.86 l-0.02 -0.34 q-0.26 0.62 -0.78 1.38 q-0.5 0.72 -1.04 1.27 t-0.84 0.63 z M84.12 18.68 q0.04 -0.16 0 -0.32 q-0.02 -0.12 -0.1 -0.22 l-0.06 -0.1 l-0.1 0.14 q-0.14 0.2 -0.4 0.38 q-0.2 0.16 -0.6 0.42 l-0.38 0.22 l0.16 -0.64 q0.16 -0.76 0.18 -1.34 q0.04 -0.8 -0.18 -1.1 q-0.12 -0.16 -0.49 -0.36 t-0.81 -0.3 q-0.48 -0.12 -0.84 -0.06 q-0.76 0.1 -1.42 0.68 q-0.54 0.46 -0.96 1.22 q-0.32 0.54 -0.56 1.16 l-0.16 0.52 l-0.08 0 q-0.1 0.02 -0.18 0.08 q-0.14 0.08 -0.24 0.24 q-0.14 0.2 -0.22 0.5 q-0.44 1.5 -0.24 2.52 q0.16 0.92 0.82 1.36 q0.6 0.4 1.46 0.3 q0.68 -0.08 1.3 -0.5 q0.52 -0.34 0.98 -0.92 q0.36 -0.46 0.66 -1.04 q0.22 -0.42 0.4 -0.86 l0.12 -0.36 l0.22 -0.1 q0.28 -0.16 0.68 -0.46 t0.7 -0.61 t0.34 -0.45 z M81.54 16.240000000000002 q0.14 0 0.09 0.92 t-0.21 1.8 q-0.22 1 -0.46 1.2 q-0.16 0.12 -0.56 0.18 t-0.68 -0.04 q-0.32 -0.12 -0.3 -0.44 q0.02 -0.72 0.32 -1.44 q0.26 -0.6 0.66 -1.14 q0.34 -0.46 0.7 -0.76 q0.32 -0.28 0.44 -0.28 z M78.62 20.58 l0 0.06 q0.02 0.08 0.11 0.17 t0.27 0.17 q0.22 0.08 0.56 0.12 q0.24 0.02 0.54 -0.02 q0.2 -0.04 0.4 -0.12 l0.16 -0.06 l-0.18 0.42 q-0.24 0.52 -0.5 0.92 q-0.36 0.58 -0.72 0.88 q-0.44 0.38 -0.86 0.32 q-0.36 -0.06 -0.3 -0.8 q0.04 -0.54 0.28 -1.34 z M92.02 19.2 q-0.04 -0.06 -0.06 -0.1 q-0.1 -0.12 -0.28 -0.18 q-0.26 -0.1 -0.66 -0.06 q-0.84 0.06 -1.96 0.68 q-0.8 0.42 -1.9 1.22 q-0.14 -0.2 -0.84 -0.74 q-0.82 -0.64 -1.18 -1 q-0.58 -0.62 -0.6 -1.14 q0 -0.64 0.9 -1.16 q1.04 -0.6 3.3 -1.06 q0.46 -0.08 0.48 0.22 l0 0.02 q0.08 -0.04 0.13 -0.36 t-0.03 -0.64 q-0.1 -0.4 -0.36 -0.66 q-0.34 -0.28 -0.9 -0.3 q-0.66 -0.02 -1.6 0.36 q-1.7 0.68 -2.44 1.48 q-0.66 0.7 -0.6 1.52 q0.04 0.68 0.56 1.48 q0.3 0.48 1.04 1.34 q0.44 0.52 0.6 0.74 q0.28 0.38 0.36 0.62 l-0.66 0.48 q-0.84 0.64 -1.64 1.32 q-1.14 0.98 -2.08 1.96 q-1.42 1.44 -2.38 2.94 q-1.04 1.66 -1.12 2.72 q-0.02 0.32 0.42 0.7 q0.38 0.36 0.94 0.59 t0.9 0.17 q1.82 -0.32 3.6 -1.58 q1.66 -1.18 2.84 -2.87 t1.46 -3.33 q0.32 -1.78 -0.54 -3.04 l0.28 -0.24 q0.36 -0.28 0.8 -0.58 q0.64 -0.4 1.36 -0.76 q0.88 -0.44 1.86 -0.76 z M86.3 22.34 l0.04 0.24 q0.06 0.32 0.04 0.68 q-0.04 0.54 -0.2 1.12 q-0.22 0.72 -0.62 1.46 q-0.48 0.9 -1.21 1.8 t-1.83 1.76 q-1 0.82 -1.88 1.25 t-1.08 0.21 q-0.3 -0.32 0.36 -1.48 q0.6 -1.06 1.8 -2.52 q1.16 -1.42 2.4 -2.66 q1.3 -1.3 2.18 -1.86 z M91.8 21.259999999999998 q0.26 0 0.96 -0.52 q0.74 -0.56 1.4 -1.28 q0.78 -0.86 1.12 -1.62 q0.38 -0.9 0.04 -1.54 q-0.12 -0.24 -0.56 -0.54 q-0.54 -0.36 -1.04 -0.42 q-0.58 -0.08 -1.34 0.42 q-0.54 0.34 -1.06 0.88 q-1.12 1.52 -1.64 3.12 q-0.44 1.36 -0.3 2.3 q0.08 0.74 0.42 1.22 q0.28 0.38 0.7 0.58 q0.34 0.14 0.64 0.14 q0.9 0 1.94 -0.86 q0.9 -0.74 1.42 -1.7 q0.16 -0.3 0.26 -0.6 q0.06 -0.22 0.08 -0.42 l0.02 -0.14 l-0.2 0.26 q-0.26 0.32 -0.6 0.66 q-0.44 0.46 -0.95 0.87 t-0.79 0.59 q-0.46 0.3 -0.84 0.37 t-0.5 -0.21 t-0.08 -0.9 q0.04 -0.42 0.14 -0.74 l0.1 -0.22 l0.02 0.08 q0.06 0.08 0.18 0.14 q0.16 0.08 0.46 0.08 z M94.49999999999999 16.12 q0 0.1 -0.02 0.2 q-0.04 0.24 -0.12 0.5 q-0.12 0.38 -0.32 0.74 q-0.54 0.76 -1.02 1.3 q-0.4 0.46 -0.76 0.76 q-0.3 0.24 -0.54 0.38 q-0.16 0.08 -0.3 0.12 l-0.1 0 l0.16 -0.46 q0.22 -0.54 0.48 -1.06 q0.38 -0.7 0.81 -1.2 t0.87 -0.84 q0.32 -0.22 0.62 -0.36 z M98.66 9.68 q0.2 -0.3 0.62 -0.46 q0.32 -0.14 0.76 -0.18 q0.3 -0.02 0.64 0 l0.28 0.04 l-0.1 0.06 q-0.12 0.08 -0.22 0.18 q-0.14 0.14 -0.22 0.32 q-0.54 1.2 -1.36 3.5 q-0.58 1.66 -1.24 3.7 l-0.54 1.7 l0.4 -0.72 q0.48 -0.86 1 -1.5 q0.7 -0.92 1.34 -1.3 q0.78 -0.48 1.42 -0.08 q0.3 0.2 0.3 0.72 t-0.28 1.2 t-0.78 1.3 q-0.34 0.42 -0.8 0.82 q-0.32 0.3 -0.64 0.54 l-0.28 0.18 l0.04 0.5 q0.06 0.62 0.22 1.24 q0.22 0.9 0.6 1.68 q0.46 0.98 1.14 1.74 q0.34 0.38 0.68 0.62 q0.26 0.22 0.52 0.32 q0.18 0.08 0.32 0.1 l0.12 0.02 l-0.16 0.16 q-0.22 0.2 -0.48 0.28 q-0.34 0.14 -0.7 0.06 q-0.46 -0.1 -0.9 -0.5 q-1 -0.94 -1.68 -2.14 q-0.56 -0.98 -0.86 -2.08 q-0.22 -0.8 -0.3 -1.58 q-0.04 -0.58 -0.01 -0.69 t0.23 -0.29 q0.12 -0.12 0.48 -0.4 q1.02 -0.8 1.48 -1.36 q0.6 -0.74 0.88 -1.24 q0.3 -0.56 0.16 -0.74 q-0.08 -0.14 -0.39 -0.03 t-0.73 0.49 q-0.48 0.42 -0.94 1.1 q-0.84 1.2 -1.52 2.58 q-0.54 1.1 -0.96 2.26 q-0.32 0.82 -0.52 1.6 l-0.16 0.6 l-0.2 0 q-0.22 0 -0.42 -0.06 q-0.3 -0.08 -0.5 -0.28 q-0.24 -0.26 -0.32 -0.66 q-0.08 -0.28 1.04 -3.6 q0.94 -2.82 2.14 -6.14 q1.2 -3.28 1.4 -3.58 z"></path>
    </g>
</svg>